<svg width="20" height="20" viewBox="0 0 20 20" fill="none" xmlns="http://www.w3.org/2000/svg">
<g clip-path="url(#clip0_2001_1365)">
<rect width="20" height="20" rx="5" fill="#C2C2C2"/>
<path fill-rule="evenodd" clip-rule="evenodd" d="M3.8934 9.30494C7.38188 7.8937 9.70812 6.96332 10.872 6.51384C14.1953 5.23042 14.8858 5.00746 15.3359 5.00008C15.4349 4.99847 15.6562 5.02126 15.7996 5.12929C16.0123 5.28953 16.0135 5.63736 15.9899 5.86757C15.8098 7.62451 15.0305 11.8881 14.6341 13.8559C14.4663 14.6885 14.136 14.9677 13.8163 14.995C13.1214 15.0544 12.5937 14.5686 11.9206 14.159C10.8674 13.5179 10.2724 13.1189 9.25007 12.4934C8.06861 11.7704 8.83451 11.3731 9.50782 10.7238C9.68405 10.5539 12.7459 7.96796 12.8051 7.73337C12.8126 7.70403 12.8194 7.59465 12.7494 7.53693C12.6795 7.4792 12.5762 7.49891 12.5017 7.51462C12.3961 7.53688 10.7135 8.56948 7.45415 10.6124C6.97656 10.9169 6.54399 11.0652 6.15643 11.0575C5.72914 11.0489 4.90728 10.8332 4.29629 10.6487C3.54688 10.4226 2.95126 10.3029 3.00315 9.91883C3.03017 9.7187 3.3269 9.5141 3.8934 9.30494Z" fill="#333333"/>
</g>
<defs>
<clipPath id="clip0_2001_1365">
<rect width="20" height="20" fill="white"/>
</clipPath>
</defs>
</svg>
